<svg id="svg8" xmlns="http://www.w3.org/2000/svg" viewBox="0 0 170.54 138.1"><defs><style>.cls-1{fill:#ccc;stroke-width:0.26px;}.cls-1,.cls-2,.cls-3{stroke:#fff;}.cls-2{fill:#fff;stroke-width:0.26px;}.cls-3{fill:#666;stroke-width:0.26px;}.cls-4{fill:none;stroke:#4c4c4c;stroke-linejoin:round;stroke-width:2.06px;}</style></defs><title>beef</title><g id="layer2"><g id="g303"><path id="path339" class="cls-1" d="M306.44,478.55c-.2,5.76-.6,17.27.85,25.67s4.73,13.69,6.65,18.2,2.44,8.24,3.73,15.41,3.34,17.8,9,27.22,15,17.63,22.91,22.9,14.28,7.59,24.07,9.42,22.95,3.17,34.51,2.27a80.47,80.47,0,0,0,31.1-8.88,97.43,97.43,0,0,0,25-18,49.71,49.71,0,0,0,11.25-17.32c1.47-4.24.94-6.2.14-10.85s-1.87-12-2.54-15.26-.93-2.59-27.89-11.12-80.6-26.29-108.06-35.44-28.73-9.71-29.41-10-.75-.18-.85-.13l-.27.12c-.06,0-.06,0-.26,5.78Z" transform="translate(-306.1 -461.96)"/><path id="path254" class="cls-2" d="M311.31,490.05c-4.8-12.14-7.83-21.15.83-25.16s29-3,45.31-1.34a206.27,206.27,0,0,1,44.87,9.13c16.31,5.14,36.66,13.1,51.44,24.17s23.77,24.92,16.88,40-29.77,31.25-50.88,39.07-40.44,7.33-55.23-1.26-25-25.25-33.44-41.22a450.45,450.45,0,0,1-19.78-43.4Z" transform="translate(-306.1 -461.96)"/><path id="path343" class="cls-3" d="M420.11,525c-4.66-.87-10.69,0-14,3s-3.82,8.33-.74,12.93,9.78,8.52,16.16,8.75,12.46-3.26,14-7-1.31-7.69-4.42-11-6.4-5.88-11.07-6.75Z" transform="translate(-306.1 -461.96)"/><g id="g366"><path id="path368" class="cls-4" d="M318.46,491.83c-4.34-10.34-7.08-18,.75-21.43s26.22-2.57,41-1.15,25.62,4,40.56,7.78c15.67,4,33.41,11,46.49,20.6s21.49,21.23,15.26,34.09-26.91,26.63-46,33.3-36.56,6.24-49.93-1.07-22.62-21.52-30.22-35.14A371.16,371.16,0,0,1,318.46,491.83Z" transform="translate(-306.1 -461.96)"/></g></g></g></svg>