<svg id="svg8" xmlns="http://www.w3.org/2000/svg" viewBox="0 0 206.85 265.45"><defs><style>.cls-1{fill:#b2b2b2;stroke-width:0.24px;}.cls-1,.cls-2{stroke:#fff;}.cls-2{fill:#e5e5e5;stroke-width:0.26px;}</style></defs><title>chicken</title><g id="layer2"><path id="path228" class="cls-1" d="M270.46,460c13-12.25,21.88-7.75,24.69-3.75s-.49,7.51-7.15,18.38-16.65,29.11-23.25,42-9.81,20.49-8.29,27.38,7.75,13.09,8.36,19.86S260.41,578,254.5,579.38s-12.72-3.24-16.11-10.65-3.36-17.61-8.45-21.93-15.33-2.72-24.48-1.24-17.21,2.87-19-2.6,2.7-17.81,9.94-21.07,17.21,2.55,30.68-9S257.51,472.28,270.46,460Z" transform="translate(-185.95 -314.29)"/><path id="path226" class="cls-2" d="M358.44,315.57c-2.22,1-88.18-21.89-85.86,96.73,1,50.25-29.38,60.78-6.21,75.51,17.28,11,24.93-17,35.6-29.27C337,418.07,448.2,345,358.44,315.57Z" transform="translate(-185.95 -314.29)"/></g></svg>