<svg id="svg8" xmlns="http://www.w3.org/2000/svg" viewBox="0 0 456.74 275.41"><defs><style>.cls-1{fill:#b2b2b2;}.cls-1,.cls-2,.cls-3,.cls-4,.cls-5,.cls-6{stroke:#fff;}.cls-1,.cls-2,.cls-3,.cls-4,.cls-5{stroke-width:0.26px;}.cls-2{fill:#7f7f7f;}.cls-3{fill:#ccc;}.cls-4{fill:#666;}.cls-5{fill:#e5e5e5;}.cls-6{fill:#fff;stroke-width:0.32px;}</style></defs><title>salad</title><g id="layer2"><path id="path154" class="cls-1" d="M257,340.38c-20.58-8.2-46.09-24.6-43.82-34.82s32.33-14.27,34.65-22.46-24.8-21.39-26.44-27.77,21.34-6.39,38.26-14.15,27.78-23.27,36.37-23.27,14.9,15.52,26.08,28.78S349.32,271,344.9,277.74s-28.3,9.26-30.27,16.8,18.49,20.07,21.27,29.91-12.12,17-27.4,20.56-30.94,3.57-51.52-4.63Z" transform="translate(-71.63 -217.78)"/><path id="path158" class="cls-1" d="M369.67,362.14c-10.61-6.68-30.56-20.05-32.77-29.51s13.3-15,12.79-22.2-17-16.05-17-23.45,16.74-13.36,32.27-22.07,29.92-20.18,35.74-19.4,3.05,13.89,12.9,22.47,32.31,12.69,32.81,21.18-21,21.37-24.56,35.19,11.42,29.34,7.88,36.91-25.25,7.57-36.74,7.57-12.75,0-23.36-6.69Z" transform="translate(-71.63 -217.78)"/><path id="path162" class="cls-2" d="M301.93,281.89a38.23,38.23,0,0,0-22,26.27,37.58,37.58,0,1,0,22-26.27Z" transform="translate(-71.63 -217.78)"/><path id="path142" class="cls-3" d="M180.11,323.36C164.83,314.9,146.9,298,144,288s9.12-13,17.83-17.42,14.08-10.23,18.81-16.92,8.72-14.05,19.45-18.05,27.15-4.48,32.71,2.16-.26,20.42,2.39,28.7,13.77,11.05,12.94,20.79-14.32,27.36-27.2,35.94-25.51,8.58-40.79.13Z" transform="translate(-71.63 -217.78)"/><path id="path172" class="cls-4" d="M183.11,309.86a40.67,40.67,0,1,1,9.78,24.52,41.11,41.11,0,0,1-9.78-24.52Z" transform="translate(-71.63 -217.78)"/></g><g id="layer1"><circle id="path88" class="cls-5" cx="0.69" cy="165.25" r="0.07"/><path id="path122" class="cls-6" d="M71.89,312.9H528.11S437.08,493,298.93,493s-227-180.14-227-180.14Z" transform="translate(-71.63 -217.78)"/></g></svg>